# xmcd CD database file
#
# Track frame offsets:
#	150
#	15499
#	33600
#	55113
#	73745
#	98315
#	100943
#	121718
#	137255
#	154249
#	176834
#	202747
#
# Disc length: 2946 seconds
#
# Revision: 0
# Processed by: cddbd v1.5.1PL0 Copyright (c) Steve Scherf et al.
# Submitted via: CDex 1.51
#
DISCID=8f0b800c
DTITLE=vin-PRAD - 12◇カラット
DYEAR=1900
DGENRE=Pop
TTITLE0=雨上がりランデヴー
TTITLE1=Swallow
TTITLE2=午前２時〜vin-PRAD mix〜(album mix)
TTITLE3=you're not the only one
TTITLE4=diffused reflection
TTITLE5=High Emotional Mind
TTITLE6=見つけたい(album mix)
TTITLE7=シェルティー・プリメイラ
TTITLE8=あぁ狂おしく、美しく
TTITLE9=愛にゆくから(album mix)
TTITLE10=cheerfully〜それは春に憧れたメモリー〜(album mix)
TTITLE11=ジェラート（J-LO mix）
EXTD=
EXTT0=
EXTT1=
EXTT2=
EXTT3=
EXTT4=
EXTT5=
EXTT6=
EXTT7=
EXTT8=
EXTT9=
EXTT10=
EXTT11=
PLAYORDER=
